<svg height="2110" width="720" xmlns="http://www.w3.org/2000/svg">
<rect height="2110" fill="#555" width="720"></rect>
<text fill="#7f7" font-family="Courier New" font-size="12" xml:space="preserve">
<tspan x="10" y="26">35 megabytes</tspan>
<tspan x="10" y="42">└─┬ nsqjs@0.7.13 </tspan>
<tspan x="10" y="58">  ├─┬ async@2.3.0 </tspan>
<tspan x="10" y="74">  │ └── lodash@4.17.4 </tspan>
<tspan x="10" y="90">  ├── bignumber.js@1.2.1 </tspan>
<tspan x="10" y="106">  ├─┬ debug@2.6.3 </tspan>
<tspan x="10" y="122">  │ └── ms@0.7.2 </tspan>
<tspan x="10" y="138">  ├── moment@2.18.1 </tspan>
<tspan x="10" y="154">  ├── node-int64@0.3.3 </tspan>
<tspan x="10" y="170">  ├── node-state@1.4.4 </tspan>
<tspan x="10" y="186">  ├─┬ request@2.81.0 </tspan>
<tspan x="10" y="202">  │ ├── aws-sign2@0.6.0 </tspan>
<tspan x="10" y="218">  │ ├── aws4@1.6.0 </tspan>
<tspan x="10" y="234">  │ ├── caseless@0.12.0 </tspan>
<tspan x="10" y="250">  │ ├─┬ combined-stream@1.0.5 </tspan>
<tspan x="10" y="266">  │ │ └── delayed-stream@1.0.0 </tspan>
<tspan x="10" y="282">  │ ├── extend@3.0.0 </tspan>
<tspan x="10" y="298">  │ ├── forever-agent@0.6.1 </tspan>
<tspan x="10" y="314">  │ ├─┬ form-data@2.1.2 </tspan>
<tspan x="10" y="330">  │ │ └── asynckit@0.4.0 </tspan>
<tspan x="10" y="346">  │ ├─┬ har-validator@4.2.1 </tspan>
<tspan x="10" y="362">  │ │ ├─┬ ajv@4.11.5 </tspan>
<tspan x="10" y="378">  │ │ │ ├── co@4.6.0 </tspan>
<tspan x="10" y="394">  │ │ │ └─┬ json-stable-stringify@1.0.1 </tspan>
<tspan x="10" y="410">  │ │ │   └── jsonify@0.0.0 </tspan>
<tspan x="10" y="426">  │ │ └── har-schema@1.0.5 </tspan>
<tspan x="10" y="442">  │ ├─┬ hawk@3.1.3 </tspan>
<tspan x="10" y="458">  │ │ ├── boom@2.10.1 </tspan>
<tspan x="10" y="474">  │ │ ├── cryptiles@2.0.5 </tspan>
<tspan x="10" y="490">  │ │ ├── hoek@2.16.3 </tspan>
<tspan x="10" y="506">  │ │ └── sntp@1.0.9 </tspan>
<tspan x="10" y="522">  │ ├─┬ http-signature@1.1.1 </tspan>
<tspan x="10" y="538">  │ │ ├── assert-plus@0.2.0 </tspan>
<tspan x="10" y="554">  │ │ ├─┬ jsprim@1.4.0 </tspan>
<tspan x="10" y="570">  │ │ │ ├── assert-plus@1.0.0 </tspan>
<tspan x="10" y="586">  │ │ │ ├── extsprintf@1.0.2 </tspan>
<tspan x="10" y="602">  │ │ │ ├── json-schema@0.2.3 </tspan>
<tspan x="10" y="618">  │ │ │ └── verror@1.3.6 </tspan>
<tspan x="10" y="634">  │ │ └─┬ sshpk@1.11.0 </tspan>
<tspan x="10" y="650">  │ │   ├── asn1@0.2.3 </tspan>
<tspan x="10" y="666">  │ │   ├── assert-plus@1.0.0 </tspan>
<tspan x="10" y="682">  │ │   ├── bcrypt-pbkdf@1.0.1 </tspan>
<tspan x="10" y="698">  │ │   ├─┬ dashdash@1.14.1 </tspan>
<tspan x="10" y="714">  │ │   │ └── assert-plus@1.0.0 </tspan>
<tspan x="10" y="730">  │ │   ├── ecc-jsbn@0.1.1 </tspan>
<tspan x="10" y="746">  │ │   ├─┬ getpass@0.1.6 </tspan>
<tspan x="10" y="762">  │ │   │ └── assert-plus@1.0.0 </tspan>
<tspan x="10" y="778">  │ │   ├── jodid25519@1.0.2 </tspan>
<tspan x="10" y="794">  │ │   ├── jsbn@0.1.1 </tspan>
<tspan x="10" y="810">  │ │   └── tweetnacl@0.14.5 </tspan>
<tspan x="10" y="826">  │ ├── is-typedarray@1.0.0 </tspan>
<tspan x="10" y="842">  │ ├── isstream@0.1.2 </tspan>
<tspan x="10" y="858">  │ ├── json-stringify-safe@5.0.1 </tspan>
<tspan x="10" y="874">  │ ├─┬ mime-types@2.1.15 </tspan>
<tspan x="10" y="890">  │ │ └── mime-db@1.27.0 </tspan>
<tspan x="10" y="906">  │ ├── oauth-sign@0.8.2 </tspan>
<tspan x="10" y="922">  │ ├── performance-now@0.2.0 </tspan>
<tspan x="10" y="938">  │ ├── qs@6.4.0 </tspan>
<tspan x="10" y="954">  │ ├── safe-buffer@5.0.1 </tspan>
<tspan x="10" y="970">  │ ├── stringstream@0.0.5 </tspan>
<tspan x="10" y="986">  │ ├─┬ tough-cookie@2.3.2 </tspan>
<tspan x="10" y="1002">  │ │ └── punycode@1.4.1 </tspan>
<tspan x="10" y="1018">  │ ├── tunnel-agent@0.6.0 </tspan>
<tspan x="10" y="1034">  │ └── uuid@3.0.1 </tspan>
<tspan x="10" y="1050">  ├─┬ snappystream@0.3.4 </tspan>
<tspan x="10" y="1066">  │ ├── coffee-script@1.12.4 </tspan>
<tspan x="10" y="1082">  │ ├── int24@0.0.1 </tspan>
<tspan x="10" y="1098">  │ ├─┬ snappy@5.0.5 </tspan>
<tspan x="10" y="1114">  │ │ ├── bindings@1.2.1 </tspan>
<tspan x="10" y="1130">  │ │ ├── nan@2.3.5 </tspan>
<tspan x="10" y="1146">  │ │ └─┬ node-gyp@3.4.0 </tspan>
<tspan x="10" y="1162">  │ │   ├─┬ fstream@1.0.11 </tspan>
<tspan x="10" y="1178">  │ │   │ └── inherits@2.0.3 </tspan>
<tspan x="10" y="1194">  │ │   ├─┬ glob@7.1.1 </tspan>
<tspan x="10" y="1210">  │ │   │ ├── fs.realpath@1.0.0 </tspan>
<tspan x="10" y="1226">  │ │   │ ├─┬ inflight@1.0.6 </tspan>
<tspan x="10" y="1242">  │ │   │ │ └── wrappy@1.0.2 </tspan>
<tspan x="10" y="1258">  │ │   │ ├── once@1.4.0 </tspan>
<tspan x="10" y="1274">  │ │   │ └── path-is-absolute@1.0.1 </tspan>
<tspan x="10" y="1290">  │ │   ├── graceful-fs@4.1.11 </tspan>
<tspan x="10" y="1306">  │ │   ├─┬ minimatch@3.0.3 </tspan>
<tspan x="10" y="1322">  │ │   │ └─┬ brace-expansion@1.1.7 </tspan>
<tspan x="10" y="1338">  │ │   │   ├── balanced-match@0.4.2 </tspan>
<tspan x="10" y="1354">  │ │   │   └── concat-map@0.0.1 </tspan>
<tspan x="10" y="1370">  │ │   ├─┬ mkdirp@0.5.1 </tspan>
<tspan x="10" y="1386">  │ │   │ └── minimist@0.0.8 </tspan>
<tspan x="10" y="1402">  │ │   ├─┬ nopt@3.0.6 </tspan>
<tspan x="10" y="1418">  │ │   │ └── abbrev@1.1.0 </tspan>
<tspan x="10" y="1434">  │ │   ├─┬ npmlog@3.1.2 </tspan>
<tspan x="10" y="1450">  │ │   │ ├─┬ are-we-there-yet@1.1.2 </tspan>
<tspan x="10" y="1466">  │ │   │ │ ├── delegates@1.0.0 </tspan>
<tspan x="10" y="1482">  │ │   │ │ └─┬ readable-stream@2.2.7 </tspan>
<tspan x="10" y="1498">  │ │   │ │   ├── buffer-shims@1.0.0 </tspan>
<tspan x="10" y="1514">  │ │   │ │   ├── core-util-is@1.0.2 </tspan>
<tspan x="10" y="1530">  │ │   │ │   ├── isarray@1.0.0 </tspan>
<tspan x="10" y="1546">  │ │   │ │   ├── process-nextick-args@1.0.7 </tspan>
<tspan x="10" y="1562">  │ │   │ │   ├── string_decoder@1.0.0 </tspan>
<tspan x="10" y="1578">  │ │   │ │   └── util-deprecate@1.0.2 </tspan>
<tspan x="10" y="1594">  │ │   │ ├── console-control-strings@1.1.0 </tspan>
<tspan x="10" y="1610">  │ │   │ ├─┬ gauge@2.6.0 </tspan>
<tspan x="10" y="1626">  │ │   │ │ ├── aproba@1.1.1 </tspan>
<tspan x="10" y="1642">  │ │   │ │ ├── has-color@0.1.7 </tspan>
<tspan x="10" y="1658">  │ │   │ │ ├── has-unicode@2.0.1 </tspan>
<tspan x="10" y="1674">  │ │   │ │ ├── object-assign@4.1.1 </tspan>
<tspan x="10" y="1690">  │ │   │ │ ├── signal-exit@3.0.2 </tspan>
<tspan x="10" y="1706">  │ │   │ │ ├─┬ string-width@1.0.2 </tspan>
<tspan x="10" y="1722">  │ │   │ │ │ ├── code-point-at@1.1.0 </tspan>
<tspan x="10" y="1738">  │ │   │ │ │ └─┬ is-fullwidth-code-point@1.0.0 </tspan>
<tspan x="10" y="1754">  │ │   │ │ │   └── number-is-nan@1.0.1 </tspan>
<tspan x="10" y="1770">  │ │   │ │ ├─┬ strip-ansi@3.0.1 </tspan>
<tspan x="10" y="1786">  │ │   │ │ │ └── ansi-regex@2.1.1 </tspan>
<tspan x="10" y="1802">  │ │   │ │ └── wide-align@1.1.0 </tspan>
<tspan x="10" y="1818">  │ │   │ └── set-blocking@2.0.0 </tspan>
<tspan x="10" y="1834">  │ │   ├─┬ osenv@0.1.4 </tspan>
<tspan x="10" y="1850">  │ │   │ ├── os-homedir@1.0.2 </tspan>
<tspan x="10" y="1866">  │ │   │ └── os-tmpdir@1.0.2 </tspan>
<tspan x="10" y="1882">  │ │   ├─┬ path-array@1.0.1 </tspan>
<tspan x="10" y="1898">  │ │   │ └─┬ array-index@1.0.0 </tspan>
<tspan x="10" y="1914">  │ │   │   └─┬ es6-symbol@3.1.1 </tspan>
<tspan x="10" y="1930">  │ │   │     ├── d@1.0.0 </tspan>
<tspan x="10" y="1946">  │ │   │     └─┬ es5-ext@0.10.15 </tspan>
<tspan x="10" y="1962">  │ │   │       └── es6-iterator@2.0.1 </tspan>
<tspan x="10" y="1978">  │ │   ├── rimraf@2.6.1 </tspan>
<tspan x="10" y="1994">  │ │   ├── semver@5.3.0 </tspan>
<tspan x="10" y="2010">  │ │   ├─┬ tar@2.2.1 </tspan>
<tspan x="10" y="2026">  │ │   │ └── block-stream@0.0.9 </tspan>
<tspan x="10" y="2042">  │ │   └─┬ which@1.2.14 </tspan>
<tspan x="10" y="2058">  │ │     └── isexe@2.0.0 </tspan>
<tspan x="10" y="2074">  │ └── sse4_crc32@5.1.1 </tspan>
<tspan x="10" y="2090">  └── underscore@1.5.2</tspan>
</text>
</svg>
